<svg id="Capa_1" enable-background="new 0 0 512 512" height="512" viewBox="0 0 512 512" width="512" xmlns="http://www.w3.org/2000/svg"><g><ellipse cx="406.36" cy="345.86" fill="#002860" rx="105.64" ry="105.64" transform="matrix(.982 -.189 .189 .982 -58.072 83.086)"/><ellipse cx="406.36" cy="345.86" fill="#ebebff" rx="75.64" ry="75.64" transform="matrix(.16 -.987 .987 .16 -.126 691.573)"/><ellipse cx="105.64" cy="345.86" fill="#00347b" rx="105.64" ry="105.64" transform="matrix(.707 -.707 .707 .707 -213.619 175.999)"/><ellipse cx="105.64" cy="345.86" fill="#f5f5ff" rx="75.64" ry="75.64" transform="matrix(.924 -.383 .383 .924 -124.314 66.754)"/><path d="m421 120.5h-15c-8.28 0-15 6.72-15 15s6.72 15 15 15h15c24.81 0 45-20.19 45-45s-20.19-45-45-45h-91.08c-9.961 0-17.13 9.545-14.43 19.08l20.05 70.92h-142.74l-11.71-35h-31.64l16.53 49.39-73.8 174.78c-4.171 9.904 3.12 20.83 13.82 20.83h136.23c6.03 0 11.48-3.61 13.82-9.17l72.13-170.83h15.84l47.91 169.44c2.28 8.101 10.711 12.586 18.51 10.35 7.97-2.25 12.61-10.54 10.35-18.51l-71.04-251.28h71.25c8.27 0 15 6.73 15 15s-6.73 15-15 15zm-188.72 210h-103.66l63.33-150h103.67z" fill="#4bd675"/><path d="m421 120.5h-15c-8.28 0-15 6.72-15 15s6.72 15 15 15h15c24.81 0 45-20.19 45-45s-20.19-45-45-45h-91.08c-9.96 0-17.13 9.54-14.43 19.08l20.05 70.92h-79.54v30h39.62l-39.62 93.83v77.11c.02-.04.03-.07.05-.11l72.13-170.83h15.84l47.91 169.44c2.28 8.1 10.71 12.59 18.51 10.35 7.97-2.25 12.61-10.54 10.35-18.51l-71.04-251.28h71.25c8.27 0 15 6.73 15 15s-6.73 15-15 15z" fill="#00bf76"/><path d="m200.95 90.5h-69.9c-8.284 0-15 6.716-15 15s6.716 15 15 15h69.9c8.284 0 15-6.716 15-15s-6.716-15-15-15z" fill="#00347b"/></g></svg>